# xmcd
#
# Track frame offsets:
#	150
#	20765
#	33882
#	46757
#	65062
#	78320
#	90565
#	106207
#	120967
#	136832
#	147842
#	159875
#	172032
#	182052
#	195250
#	217355
#	236762
#	249387
#	264155
#	282790
#
# Disc length: 3965 seconds
#
# Revision: 7
# Processed by: cddbd v1.5.2PL0 Copyright (c) Steve Scherf et al.
# Submitted via: FairStars CD Ripper 1.90
#
DISCID=0b0f7b14
DTITLE=Aretha Franklin - Essential Aretha Franklin - Columbia Years 2
DYEAR=1972
DGENRE=Soul
TTITLE0=This Bitter Earth
TTITLE1=Just For A Thrill
TTITLE2=Skylark
TTITLE3=Skylark (Alternate Version)
TTITLE4=Trouble In Mind
TTITLE5=Runnin' Out Of Fools
TTITLE6=Drinking Again
TTITLE7=Laughing On The Outside
TTITLE8=What A Diff'rence A Day Makes
TTITLE9=Soulville
TTITLE10=You'll Lose A Good Thing
TTITLE11=Take A Look
TTITLE12=Cry Like A Baby
TTITLE13=I Wish I Didn't Love You So
TTITLE14=Only The Lonely
TTITLE15=People (from Funny Girl)
TTITLE16=Mockingbird
TTITLE17=Until You Were Gone
TTITLE18=My Coloring Book
TTITLE19=Try A Little Tenderness
EXTD=YEAR: 2002
EXTT0=
EXTT1=
EXTT2=
EXTT3=
EXTT4=
EXTT5=
EXTT6=
EXTT7=
EXTT8=
EXTT9=
EXTT10=
EXTT11=
EXTT12=
EXTT13=
EXTT14=
EXTT15=
EXTT16=
EXTT17=
EXTT18=
EXTT19=
PLAYORDER=
